<svg aria-hidden="true" xmlns="http://www.w3.org/2000/svg" xmlns:xlink="http://www.w3.org/1999/xlink" width="70" height="70" viewBox="0 0 62.888 62.888">
    <g transform="translate(-1108 -2602.892)" class="search-icon-background" fill="#7C4DD6">
        <g transform="matrix(1, 0, 0, 1, 1108, 2602.89)">
            <path data-name="Path 132" d="M1932.81,75.848a22.444,22.444,0,1,0-22.44-22.441,22.445,22.445,0,0,0,22.44,22.441Z" transform="translate(-1901.37 -24.96)"></path>
        </g>
        <path data-name="Path 133" class="search-icon-circle" d="M1955.833,69.182a7.342,7.342,0,1,0-7.342,7.342A7.342,7.342,0,0,0,1955.833,69.182Zm-2.388,0a4.94,4.94,0,1,1-4.94-4.94,4.94,4.94,0,0,1,4.94,4.94Z" transform="translate(-810.942 2559.781)" fill="#fff"></path>
        <path data-name="Path 134" class="search-icon-circle" d="M1977.912,96.59h0l-1.624.225-.222,1.62,0,.007.007,0,5.725,5.725,1.846-1.846-5.728-5.725,0,0Z" transform="translate(-834.957 2536.886)" fill="#fff"></path>
    </g>
</svg>