<svg aria-hidden="true" xmlns="http://www.w3.org/2000/svg" width="82.991" height="14.732" viewBox="0 0 82.991 14.732">
  <path data-name="Path 357" d="M1207.427,97.9h7.564V95.221l-1.521,1.521h-3.4V84.91l1.12-1.125h-3.782l1.105,1.125V96.772l-1.105,1.125Zm-10.646,0h7.564V95.221l-1.521,1.521h-3.4V84.91l1.125-1.125h-3.782l1.1,1.125V96.772l-1.1,1.125Zm-3.493,0v-2.58l-1.521,1.521h-4.284V90.912h3.184l1.125,1.125v-3.3l-1.125,1.12h-3.184V84.834h4.284l1.521,1.521V83.82h-8.446l1.1,1.125V96.807l-1.1,1.125Zm-20.5-7.1h5.936v5.956l-1.125,1.125h3.8l-1.12-1.125V84.91l1.12-1.125h-3.777l1.125,1.125v4.851h-5.936V84.91l1.125-1.125h-3.777l1.1,1.125V96.772l-1.1,1.125h3.777l-1.125-1.125V90.836Zm-9.328,5.956V84.834h2.682l1.521,1.521V83.82h-9.926v2.535l1.521-1.521h2.651V96.772l-1.1,1.125h3.782l-1.126-1.125Zm-13.566.36c-2.824,0-3.8-3.371-3.8-6.291s.978-6.291,3.8-6.291,3.827,3.371,3.827,6.291-.979,6.291-3.827,6.291m-5.642-6.281c0,3.589,2.028,7.366,5.642,7.366s5.672-3.777,5.672-7.366-2.028-7.366-5.672-7.366-5.642,3.777-5.642,7.366m-7.386,6.007h-2.221v-5.5h2.221a2.915,2.915,0,0,1,2.92,2.92,2.789,2.789,0,0,1-2.92,2.611m-2.221-12.014h1.719a2.824,2.824,0,0,1,2.707,2.829,2.667,2.667,0,0,1-2.707,2.606h-1.719v-5.46ZM1132,97.9h4.877c2.251,0,4.562-.907,4.562-3.66a3.863,3.863,0,0,0-3.158-3.635,3.553,3.553,0,0,0,2.464-2.94c0-2.874-2.129-3.878-4.38-3.878H1132l1.1,1.125V96.772Z" transform="translate(-1132 -83.47)" fill="#fff"/>
</svg>
