<svg xmlns="http://www.w3.org/2000/svg" width="33" height="33" viewBox="0 0 33 33">
  <path id="library_books_FILL0_wght400_GRAD0_opsz48" d="M14.849,22.975H24.13V20.5H14.849Zm0-3.712H31.143V16.788H14.849Zm0-3.713H31.143V13.075H14.849Zm-3.424,16.5A2.538,2.538,0,0,1,8.95,29.575V6.475a2.374,2.374,0,0,1,.742-1.733A2.374,2.374,0,0,1,11.425,4h23.1a2.374,2.374,0,0,1,1.732.742A2.374,2.374,0,0,1,37,6.475v23.1a2.538,2.538,0,0,1-2.475,2.475Zm0-2.475h23.1V6.475h-23.1ZM6.475,37a2.374,2.374,0,0,1-1.733-.743A2.374,2.374,0,0,1,4,34.525V8.95H6.475V34.525H32.05V37Zm4.95-30.525v0Z" transform="translate(-4 -4)" fill="#7c4dd6"/>
</svg>
