<svg xmlns="http://www.w3.org/2000/svg" width="33" height="31.39" viewBox="0 0 33 31.39">
  <path id="person_search_FILL0_wght400_GRAD0_opsz48" d="M18.918,20.073a6.046,6.046,0,0,1-6.077-6.037A6.011,6.011,0,0,1,18.878,8a5.978,5.978,0,0,1,6.037,6A5.9,5.9,0,0,1,23.164,18.3,5.748,5.748,0,0,1,18.918,20.073Zm-.04-2.415a3.467,3.467,0,0,0,2.576-1.066,3.668,3.668,0,0,0,0-5.131,3.453,3.453,0,0,0-2.535-1.046,3.568,3.568,0,0,0-2.6,1.046A3.42,3.42,0,0,0,15.256,14a3.533,3.533,0,0,0,1.066,2.6A3.486,3.486,0,0,0,18.878,17.659ZM37.31,39.39l-5.634-5.634a5.654,5.654,0,0,1-1.912.946,7.892,7.892,0,0,1-2.032.262,6.8,6.8,0,0,1-6.841-6.841,6.8,6.8,0,0,1,6.841-6.841,6.8,6.8,0,0,1,6.841,6.841,7.892,7.892,0,0,1-.262,2.032,5.654,5.654,0,0,1-.946,1.912L39,37.7Zm-9.578-6.841a4.468,4.468,0,0,0,3.159-7.586,4.468,4.468,0,0,0-6.318,6.318A4.288,4.288,0,0,0,27.732,32.549ZM6,33.756V29.973a4.435,4.435,0,0,1,.7-2.535,5.312,5.312,0,0,1,2.032-1.73,28.366,28.366,0,0,1,4.93-1.751,18.822,18.822,0,0,1,6.177-.624,10.188,10.188,0,0,0-.6,1.147,7.984,7.984,0,0,0-.443,1.227,16.528,16.528,0,0,0-5.473.745A29.484,29.484,0,0,0,9.7,27.88a2.721,2.721,0,0,0-.926.865,2.163,2.163,0,0,0-.362,1.227v1.368H18.8q.443.684.8,1.268a12.684,12.684,0,0,0,.8,1.147ZM18.878,14.037ZM18.8,31.341Z" transform="translate(-6 -8)" fill="#7c4dd6"/>
</svg>
