<svg aria-hidden="true" xmlns="http://www.w3.org/2000/svg" width="28" height="28" viewBox="0 0 42.404 42.404">
  <path data-name="Path 197" d="M0,0H42.4V42.4H0Z" fill="none"></path>
  <path data-name="Path 198" d="M33.054,24.874a20.218,20.218,0,0,1-6.237-.989,1.727,1.727,0,0,0-1.785.424l-2.774,3.481A26.826,26.826,0,0,1,10.085,15.721l3.445-2.933a1.8,1.8,0,0,0,.424-1.8,19.7,19.7,0,0,1-.989-6.237A1.765,1.765,0,0,0,11.216,3H5.1C4.148,3,3,3.424,3,4.749A30.3,30.3,0,0,0,33.054,34.8,1.854,1.854,0,0,0,34.8,32.718v-6.1a1.765,1.765,0,0,0-1.749-1.749Z" fill="#fff" transform="translate(2.301 2.301)"></path>
</svg>