<svg id="settings_24px" xmlns="http://www.w3.org/2000/svg" width="26" height="28.889" viewBox="0 0 26 28.889">
  <rect id="Boundary" width="24" height="24" transform="translate(2)" fill="none"/>
  <g id="_Color" data-name=" ↳Color" transform="translate(0 2.5)" fill="none" stroke-miterlimit="10">
    <path d="M15.071,26.389H9.929a.658.658,0,0,1-.644-.56l-.482-3.5a9.323,9.323,0,0,1-2.17-1.286l-3.2,1.32a.686.686,0,0,1-.222.037.631.631,0,0,1-.565-.334L.076,17.5a.694.694,0,0,1,.162-.841l2.716-2.177a8.573,8.573,0,0,1-.1-1.286,8.416,8.416,0,0,1,.112-1.286L.253,9.731a.649.649,0,0,1-.16-.841L2.664,4.321a.638.638,0,0,1,.558-.341.616.616,0,0,1,.229.044l3.2,1.32A9.63,9.63,0,0,1,8.82,4.057L9.3.56A.631.631,0,0,1,9.929,0h5.142a.648.648,0,0,1,.644.56l.482,3.5a9.368,9.368,0,0,1,2.17,1.286l3.2-1.32a.686.686,0,0,1,.222-.037.631.631,0,0,1,.565.334L24.923,8.89a.693.693,0,0,1-.162.841l-2.716,2.177a8.429,8.429,0,0,1,.1,1.286,11.04,11.04,0,0,1-.081,1.286l2.684,2.177a.649.649,0,0,1,.16.841l-2.571,4.568a.638.638,0,0,1-.558.341.616.616,0,0,1-.229-.044l-3.2-1.32a9.54,9.54,0,0,1-2.17,1.286l-.482,3.5A.615.615,0,0,1,15.071,26.389ZM12.5,8.247a4.95,4.95,0,0,0,0,9.9,4.95,4.95,0,0,0,0-9.9Z" stroke="none"/>
    <path d="M 13.87720775604248 24.38888359069824 L 14.3546314239502 20.92611312866211 L 15.40940189361572 20.48586463928223 C 15.98468112945557 20.2457332611084 16.56061172485352 19.90281295776367 17.12119102478027 19.46661376953125 L 18.03816223144531 18.75309371948242 L 21.1772575378418 20.04825019836426 L 22.61050605773926 17.50161361694336 L 19.94787216186523 15.34208393096924 L 20.07538223266602 14.24968338012695 C 20.12064170837402 13.86188411712646 20.14264106750488 13.51691341400146 20.14264106750488 13.19506359100342 C 20.14264106750488 12.85626411437988 20.11815071105957 12.52655410766602 20.06985092163086 12.21508407592773 L 19.89254188537598 11.07180404663086 L 22.62374305725098 8.882219314575195 L 21.19310569763184 6.340738296508789 L 18.05178070068359 7.637303829193115 L 17.13374137878418 6.918903827667236 C 16.57866096496582 6.484533786773682 16.01899147033691 6.151763916015625 15.42276191711426 5.90156364440918 L 14.3711519241333 5.460273742675781 L 13.89407730102539 2.000003814697266 L 11.12248516082764 2.000003814697266 L 10.64530181884766 5.461013793945312 L 9.592761993408203 5.901993751525879 C 9.01621150970459 6.143553733825684 8.438841819763184 6.487303733825684 7.876681327819824 6.923683643341064 L 6.96010160446167 7.635203838348389 L 3.822554111480713 6.340686321258545 L 2.392266988754272 8.882742881774902 L 5.122841358184814 11.0718240737915 L 4.945511341094971 12.21512413024902 C 4.885981559753418 12.59893417358398 4.857041358947754 12.91947364807129 4.857041358947754 13.19506359100342 C 4.857041358947754 13.52817344665527 4.882261753082275 13.86733341217041 4.929981708526611 14.17589378356934 L 5.106701374053955 15.31868362426758 L 2.376050233840942 17.50780868530273 L 3.806454181671143 20.04820251464844 L 6.947901725769043 18.75158309936523 L 7.865941524505615 19.46998405456543 C 8.423651695251465 19.90640449523926 8.982491493225098 20.23883438110352 9.57440185546875 20.48627281188965 L 10.62828159332275 20.92682456970215 L 11.10560512542725 24.38888359069824 L 13.87720775604248 24.38888359069824 M 12.49984169006348 6.247063636779785 C 16.26117134094238 6.247063636779785 19.32124137878418 9.363924026489258 19.32124137878418 13.19506359100342 C 19.32124137878418 17.02619361877441 16.26117134094238 20.14305305480957 12.49984169006348 20.14305305480957 C 8.738511085510254 20.14305305480957 5.678441524505615 17.02619361877441 5.678441524505615 13.19506359100342 C 5.678441524505615 9.363924026489258 8.738511085510254 6.247063636779785 12.49984169006348 6.247063636779785 M 15.07085132598877 26.38888359069824 L 9.928831100463867 26.38888359069824 C 9.609891891479492 26.38888359069824 9.351231575012207 26.16370391845703 9.285171508789062 25.82852363586426 L 8.803031921386719 22.33153343200684 C 8.043291091918945 22.01394462585449 7.33333158493042 21.5927734375 6.633401393890381 21.04505348205566 L 3.435611486434937 22.36493301391602 C 3.363591432571411 22.38956451416016 3.288761615753174 22.40204429626465 3.213131427764893 22.40204429626465 C 2.972521543502808 22.40204429626465 2.761451482772827 22.27718353271484 2.648511409759521 22.06805419921875 L 0.07630152255296707 17.49981307983398 C -0.06993847340345383 17.21591377258301 -0.0004984744009561837 16.85431289672852 0.2378115206956863 16.65865325927734 L 2.953471422195435 14.48154354095459 C 2.890211582183838 14.07246398925781 2.857041597366333 13.62716388702393 2.857041597366333 13.19506359100342 C 2.857041597366333 12.81571388244629 2.893711566925049 12.39490413665771 2.969141483306885 11.90858364105225 L 0.253481537103653 9.731463432312012 C -0.002838474465534091 9.53386402130127 -0.06877847760915756 9.187973976135254 0.09317152202129364 8.890303611755371 L 2.664181470870972 4.320833683013916 C 2.777701616287231 4.110623836517334 2.991661548614502 3.98003363609314 3.222581624984741 3.98003363609314 C 3.301041603088379 3.98003363609314 3.377981424331665 3.994803667068481 3.451281547546387 4.023953914642334 L 6.650281429290771 5.343833923339844 C 7.351631641387939 4.799393653869629 8.08203125 4.366503715515137 8.819911956787109 4.057353496551514 L 9.302051544189453 0.5603637099266052 C 9.350401878356934 0.230423703789711 9.608131408691406 3.702697767948848e-06 9.928831100463867 3.702697767948848e-06 L 15.07085132598877 3.702697767948848e-06 C 15.39623165130615 3.702697767948848e-06 15.66694164276123 0.2356636971235275 15.71451187133789 0.5603637099266052 L 16.19665145874023 4.057353496551514 C 16.95972061157227 4.3775634765625 17.6696720123291 4.798713684082031 18.36628150939941 5.343833923339844 L 21.5640811920166 4.023953914642334 C 21.6360912322998 3.999323606491089 21.7109317779541 3.986843585968018 21.78656196594238 3.986843585968018 C 22.02716064453125 3.986843585968018 22.23823165893555 4.111703872680664 22.35117149353027 4.320833683013916 L 24.92339134216309 8.890303611755371 C 25.07008171081543 9.173843383789062 25.00064086914062 9.535443305969238 24.76187133789062 9.731463432312012 L 22.04622077941895 11.90858364105225 C 22.11037063598633 12.32223415374756 22.14264106750488 12.75550365447998 22.14264106750488 13.19506359100342 C 22.14264106750488 13.59506416320801 22.11624145507812 14.01588344573975 22.06189155578613 14.48154354095459 L 24.74620246887207 16.65865325927734 C 25.00251197814941 16.85625457763672 25.06846237182617 17.2021541595459 24.9065113067627 17.49981307983398 L 22.33550071716309 22.06805419921875 C 22.22200202941895 22.27824401855469 22.00803184509277 22.40884399414062 21.77710151672363 22.40885353088379 C 21.69866180419922 22.40885353088379 21.6217212677002 22.39408302307129 21.54841232299805 22.36493301391602 L 18.34941101074219 21.04505348205566 C 17.64847183227539 21.59047317504883 16.91807174682617 22.02337455749512 16.17978096008301 22.33153343200684 L 15.69764137268066 25.82852363586426 C 15.66683197021484 26.1532039642334 15.40322113037109 26.38888359069824 15.07085132598877 26.38888359069824 Z M 12.49984169006348 8.247063636779785 C 9.841311454772949 8.247063636779785 7.678441524505615 10.46672344207764 7.678441524505615 13.19506359100342 C 7.678441524505615 15.9234037399292 9.841311454772949 18.14305305480957 12.49984169006348 18.14305305480957 C 15.15838146209717 18.14305305480957 17.32124137878418 15.9234037399292 17.32124137878418 13.19506359100342 C 17.32124137878418 10.46672344207764 15.15838146209717 8.247063636779785 12.49984169006348 8.247063636779785 Z" stroke="none" fill="#7c4dd6"/>
  </g>
</svg>
