<svg aria-hidden="true" xmlns="http://www.w3.org/2000/svg" width="443.493" height="25.057" viewBox="0 0 443.493 25.057">
  <g data-name="Group 393" transform="translate(-365.744 -44.59)">
    <path data-name="Path 355" d="M1103.38,77.51v24.278h1.067V77.51" transform="translate(-402.683 -32.92)" fill="#fff"/>
    <path data-name="Path 356" d="M821.192,98.528V86.57l8.3,13.335h.813V85.323l1.383-1.383h-4.165l1.377,1.383V95.481l-7.2-11.53h-3.3l1.354,1.383V98.539L818.4,99.916h4.176L821.2,98.539Zm-12.331.508c-3.194,0-4.3-3.809-4.3-7.111s1.129-7.116,4.3-7.116,4.329,3.815,4.329,7.116-1.129,7.111-4.329,7.111m-6.383-7.111c0,4.058,2.3,8.33,6.383,8.33s6.411-4.272,6.411-8.33-2.3-8.335-6.411-8.335-6.383,4.278-6.383,8.335m-7.218,6.71v-13.5h3.053l1.693,1.693V83.94H788.781v2.9l1.727-1.693h3.008v13.5l-1.247,1.27h4.272l-1.27-1.27Zm-11.817-5.982v5.141a3.437,3.437,0,0,1-2.624,1.129c-3.544,0-5.327-3.567-5.327-7s2.257-7.009,5.327-7.009a2.444,2.444,0,0,1,1.953.762l1.755,1.727V84.651a7.082,7.082,0,0,0-3.708-.92c-4.351,0-7.41,3.894-7.41,8.194s3.059,8.194,7.41,8.194a6.785,6.785,0,0,0,4.385-1.163v-6.3l1.242-1.27h-4.272ZM759.78,98.528V86.57l8.4,13.341h.717V85.323l1.383-1.383h-4.165l1.377,1.383V95.481l-7.2-11.541h-3.3l1.354,1.383V98.528l-1.354,1.377h4.17ZM748.335,83.94l1.275,1.275v13.42l-1.275,1.27h4.306l-1.275-1.27V85.215l1.275-1.275ZM734.164,91.9h6.71v6.738l-1.253,1.27h4.3l-1.27-1.27V85.215l1.27-1.275h-4.3l1.275,1.275v5.491h-6.733V85.215l1.27-1.275h-4.278l1.242,1.275v13.42l-1.242,1.27h4.272l-1.27-1.27V91.9Zm-7.2,3.572a3.538,3.538,0,0,0-1.49-3.059l-3.245-2.353a3.746,3.746,0,0,1-1.755-2.731,2.257,2.257,0,0,1,2.3-2.257,9.031,9.031,0,0,1,1.027.192l1.405,1.512,1.49-2.218-3.166-.6a2.658,2.658,0,0,0-.756-.079,4.018,4.018,0,0,0-4.035,3.894,4.622,4.622,0,0,0,2.054,3.657l3.273,2.353a2.715,2.715,0,0,1,1.129,2.325,2.645,2.645,0,0,1-2.652,2.822,2.709,2.709,0,0,1-1.129-.214L719.9,96.931l-1.383,2.489,3.059.564a5.509,5.509,0,0,0,.948.107,4.577,4.577,0,0,0,4.436-4.65m-17.85-7.952,2.19,6.6h-4.464l2.257-6.6ZM705.27,98.658l1.163-3.386h5.277l1.129,3.386-1.247,1.247h4.515l-1.27-1.3-4.978-14.673h-.813l-5.079,14.673-1.3,1.3h3.843l-1.247-1.247ZM688.3,99.905l3.651-11.569L695.5,99.888h.813l4.628-14.673,1.3-1.275h-3.843l1.242,1.253-3.386,11.033-3.279-11.033,1.247-1.253H689.7l1.275,1.275.322,1.055-3.031,9.966L685,85.2l1.242-1.253h-4.515l1.3,1.275L687.539,99.9Zm-23.651-9.594-.609.564.068.226h1.868c-.293,2.026-.564,3.775-.988,6.608-.609,4.2-1.129,5.683-1.552,6.044a.824.824,0,0,1-.564.2,3.069,3.069,0,0,1-.988-.339.531.531,0,0,0-.626.158,1.388,1.388,0,0,0-.384.762c0,.451.564.677.965.677a3.776,3.776,0,0,0,2.472-1.552c.768-.942,1.8-3.121,2.675-8.2.158-.948.339-1.891.722-4.362L670,90.876l.491-.564h-2.652c.677-4.131,1.242-5.361,2.207-5.361a2.438,2.438,0,0,1,1.727.739.457.457,0,0,0,.632,0,1.3,1.3,0,0,0,.446-.83c0-.451-.564-.942-1.343-.942a5,5,0,0,0-3.623,1.885,10.225,10.225,0,0,0-1.772,4.588Zm-10.113,5.926c0-3.324,1.693-5.124,2.381-5.418a2.123,2.123,0,0,1,.745-.181c1.129,0,1.772.858,1.772,2.59.045,2.918-1.484,5.57-2.427,5.88a2.122,2.122,0,0,1-.694.164c-1.258,0-1.778-1.354-1.778-3.036m3.821-6.439a5.373,5.373,0,0,0-2.427.807,7.054,7.054,0,0,0-3.217,6.163c0,1.569.745,3.324,2.822,3.324a5.734,5.734,0,0,0,3.347-1.507,8.053,8.053,0,0,0,2.365-5.643c0-1.862-.993-3.121-2.878-3.121m-26.044-4.582,4.024,7.252v6.146l-1.27,1.27h4.3l-1.275-1.27V92.49l4.114-7.246,1.326-1.3h-3.95l1.242,1.253-3.33,5.965-3.194-5.976,1.247-1.253h-4.515l1.3,1.275Zm-8.392,13.4v-13.5h3.031l1.693,1.693V83.94h-11.23v2.9l1.733-1.693h3v13.5l-1.242,1.27h4.272ZM609.456,83.962l1.275,1.275v13.42l-1.275,1.27h4.317l-1.275-1.27V85.215l1.275-1.275Zm-4.622,11.529a3.538,3.538,0,0,0-1.49-3.059L600.1,90.08a3.746,3.746,0,0,1-1.755-2.731,2.257,2.257,0,0,1,2.3-2.257,9.032,9.032,0,0,1,1.027.192l1.383,1.473,1.49-2.218-3.166-.6a2.658,2.658,0,0,0-.756-.079,4.018,4.018,0,0,0-4.058,3.95,4.622,4.622,0,0,0,2.054,3.657l3.273,2.353a2.709,2.709,0,0,1,1.129,2.325,2.64,2.64,0,0,1-2.647,2.822,2.709,2.709,0,0,1-1.129-.214l-1.512-1.783-1.383,2.489,3.059.564a5.508,5.508,0,0,0,.948.107,4.577,4.577,0,0,0,4.436-4.65M584.326,85.136h1.947a3.132,3.132,0,0,1,3.053,3.2,3,3,0,0,1-3.053,2.952h-1.947Zm0,13.5V92.467h2.4l3.866,7.438h2.652l-1.242-1.27-3.572-6.546a4.193,4.193,0,0,0,3-3.753c0-2.7-2.517-4.413-5.164-4.413h-4.949l1.242,1.275v13.42l-1.242,1.27H585.6l-1.27-1.27Zm-7.173,1.27V96.982l-1.693,1.733h-4.848V92h3.6l1.27,1.275V89.544l-1.27,1.27h-3.6V85.136h4.848l1.693,1.693V83.94H567.6l1.247,1.275v13.42l-1.247,1.27ZM556.459,83.94h-4.515l1.3,1.275,4.515,14.673h.813l4.622-14.673,1.3-1.275h-3.838l1.242,1.253-3.426,11.044L555.195,85.2l1.242-1.253Zm-12.416,0,1.27,1.275v13.42l-1.27,1.27h4.306l-1.275-1.27V85.215l1.275-1.275ZM529.2,98.528V86.57l8.561,13.335h.564V85.323L539.7,83.94h-4.165l1.383,1.383V95.481L529.737,83.94h-3.3l1.354,1.383V98.528l-1.354,1.377H530.6l-1.377-1.377Zm-17.963-2.9a4.75,4.75,0,0,0,4.949,4.628c2.6,0,5.169-1.919,5.169-4.628v-10.3L522.7,83.94h-4.165l1.383,1.383v10.3a3.279,3.279,0,0,1-3.3,3.3,3.431,3.431,0,0,1-3.516-3.3v-10.3l1.377-1.383H509.85l1.383,1.383v10.3Z" transform="translate(-144.106 -35.569)" fill="#fff"/>
    <path data-name="Path 357" d="M1215.968,99.531h8.42v-2.98l-1.693,1.693h-3.787V85.073l1.247-1.253h-4.21l1.23,1.253V98.278l-1.23,1.253Zm-11.851,0h8.42v-2.98l-1.693,1.693h-3.787V85.073l1.253-1.253h-4.21l1.225,1.253V98.278l-1.225,1.253Zm-3.888,0V96.659l-1.693,1.693h-4.769v-6.6h3.544l1.253,1.253V89.334l-1.253,1.247h-3.544V84.988h4.769l1.693,1.693V83.859h-9.4l1.225,1.253V98.318l-1.225,1.253Zm-22.822-7.9h6.608v6.631l-1.253,1.253H1187l-1.247-1.253V85.073L1187,83.82h-4.2l1.253,1.253v5.4h-6.608v-5.4l1.253-1.253h-4.2l1.225,1.253V98.278l-1.225,1.253h4.2l-1.253-1.253V91.67Zm-10.384,6.631V84.988h2.985l1.693,1.693V83.859h-11.05v2.822l1.693-1.693h2.951v13.29l-1.225,1.253h4.21l-1.253-1.253Zm-15.1.4c-3.143,0-4.233-3.753-4.233-7s1.089-7,4.233-7,4.261,3.753,4.261,7-1.089,7-4.261,7m-6.281-6.992c0,4,2.257,8.2,6.281,8.2s6.315-4.2,6.315-8.2-2.257-8.2-6.315-8.2-6.281,4.2-6.281,8.2m-8.222,6.687h-2.472V92.234h2.472a3.245,3.245,0,0,1,3.251,3.251,3.105,3.105,0,0,1-3.251,2.906m-2.472-13.375h1.913a3.143,3.143,0,0,1,3.014,3.149,2.968,2.968,0,0,1-3.014,2.9h-1.913V84.988ZM1132,99.531h5.429c2.506,0,5.079-1.01,5.079-4.075a4.3,4.3,0,0,0-3.516-4.046,3.956,3.956,0,0,0,2.743-3.273c0-3.2-2.37-4.317-4.876-4.317H1132l1.225,1.253V98.278Z" transform="translate(-415.151 -35.517)" fill="#fff"/>
  </g>
</svg>
