<svg xmlns="http://www.w3.org/2000/svg" width="35" height="35" viewBox="0 0 35 35">
  <path id="badge_FILL0_wght400_GRAD0_opsz48" d="M6.625,39a2.518,2.518,0,0,1-1.838-.788A2.518,2.518,0,0,1,4,36.375v-21a2.518,2.518,0,0,1,.787-1.838,2.518,2.518,0,0,1,1.838-.787H16.994V6.625a2.518,2.518,0,0,1,.788-1.838A2.518,2.518,0,0,1,19.619,4h3.806a2.518,2.518,0,0,1,1.837.787,2.518,2.518,0,0,1,.788,1.838V12.75H36.375A2.691,2.691,0,0,1,39,15.375v21A2.691,2.691,0,0,1,36.375,39Zm0-2.625h29.75v-21H26.05a2.411,2.411,0,0,1-.809,1.925,3,3,0,0,1-2.034.7H19.794a2.937,2.937,0,0,1-1.991-.7,2.411,2.411,0,0,1-.809-1.925H6.625Zm4.025-4.681H21.106v-.613a2.532,2.532,0,0,0-.394-1.4,1.977,1.977,0,0,0-1.006-.831,17.564,17.564,0,0,0-2.187-.634,8.016,8.016,0,0,0-1.531-.153,8.667,8.667,0,0,0-1.772.2,19.318,19.318,0,0,0-2.122.591,1.96,1.96,0,0,0-1.05.831,2.532,2.532,0,0,0-.394,1.4Zm14.7-2.931h7.438V26.575H25.35Zm-9.362-2.187a2.25,2.25,0,0,0,1.684-.7,2.367,2.367,0,0,0-3.347-3.347,2.374,2.374,0,0,0,1.663,4.047Zm9.363-2.756h7.438V21.631H25.35Zm-5.731-8.444h3.806V6.625H19.619ZM21.5,25.875Z" transform="translate(-4 -4)" fill="#7c4dd6"/>
</svg>
