<svg xmlns="http://www.w3.org/2000/svg" width="36.303" height="35.296" viewBox="0 0 36.303 35.296">
  <g id="Group_542" data-name="Group 542" transform="translate(-231.643 -124.608)">
    <g id="Group_543" data-name="Group 543" transform="translate(233.263 125.845)">
      <path id="Path_935" data-name="Path 935" d="M30.095,164.267s4.837-3.088,7.2-4.734,3.808-.153,2.882,1.288c-.866,1.347-6.587,6.431-8.131,8.284a5.748,5.748,0,0,1-4.94,2.264H20.626a9.533,9.533,0,0,0-4.734.823,25.667,25.667,0,0,0-3.705,2.985L7.04,169.722s2.511-2.408,3.6-3.5c1.338-1.338,1.544-3.191,4.22-3.705s6.793.823,7.616.823h5.558c2.985,0,2.47,3.861-.206,3.861H21.14" transform="translate(-7.04 -142.749)" fill="none" stroke="#7c4dd6" stroke-miterlimit="10" stroke-width="2.3"/>
      <path id="Path_936" data-name="Path 936" d="M100.24,8.97A4.679,4.679,0,0,0,97.4,5.225c-2.561-1.027-7.97,1.469-5.865,7.409,1.112,3.137,8.7,9.458,8.7,9.458s7.589-6.32,8.7-9.458c2.1-5.941-3.3-8.437-5.865-7.409A4.679,4.679,0,0,0,100.24,8.97Z" transform="translate(-82.415 -5)" fill="none" stroke="#7c4dd6" stroke-linecap="round" stroke-linejoin="round" stroke-width="2.3"/>
    </g>
  </g>
</svg>
