<svg xmlns="http://www.w3.org/2000/svg" width="37.125" height="27" viewBox="0 0 37.125 27">
  <path id="menu_book_FILL0_wght400_GRAD0_opsz48" d="M23.938,17.534V15.509a14.822,14.822,0,0,1,2.848-.886,15.354,15.354,0,0,1,3.059-.3A13.6,13.6,0,0,1,32,14.5q1.055.169,2.067.422v1.856a11.694,11.694,0,0,0-4.219-.759,11.705,11.705,0,0,0-3.08.4A13.6,13.6,0,0,0,23.938,17.534Zm0,9.281V24.748a13.83,13.83,0,0,1,2.848-.865,16.5,16.5,0,0,1,3.059-.274A13.6,13.6,0,0,1,32,23.778q1.055.169,2.067.422v1.856a11.694,11.694,0,0,0-4.219-.759,12.318,12.318,0,0,0-3.08.38A11.674,11.674,0,0,0,23.938,26.816Zm0-4.641V20.15a14.822,14.822,0,0,1,2.848-.886,15.354,15.354,0,0,1,3.059-.3A13.6,13.6,0,0,1,32,19.138q1.055.169,2.067.422v1.856a11.694,11.694,0,0,0-4.219-.759,11.705,11.705,0,0,0-3.08.4A13.6,13.6,0,0,0,23.938,22.175ZM10.775,29.094a18.281,18.281,0,0,1,4.409.527,19.568,19.568,0,0,1,4.2,1.582V13.189a16.049,16.049,0,0,0-4.113-1.962,14.9,14.9,0,0,0-4.493-.7,12.427,12.427,0,0,0-3.143.4,30.4,30.4,0,0,0-3.1.991V30.233a11.906,11.906,0,0,1,2.974-.865A20.117,20.117,0,0,1,10.775,29.094ZM21.912,31.2a21.23,21.23,0,0,1,4.134-1.582,17.018,17.018,0,0,1,4.3-.527,22.6,22.6,0,0,1,3.312.253,16.51,16.51,0,0,1,2.932.675v-18.1a12.537,12.537,0,0,0-3.037-1.055,15.525,15.525,0,0,0-3.206-.337,14.1,14.1,0,0,0-4.409.7,16.438,16.438,0,0,0-4.029,1.962ZM20.647,35a16.98,16.98,0,0,0-4.683-2.468,15.943,15.943,0,0,0-5.189-.865,12.148,12.148,0,0,0-3.038.38,29.78,29.78,0,0,0-2.953.928,1.808,1.808,0,0,1-1.877-.127A1.9,1.9,0,0,1,2,31.161V11.628a2.334,2.334,0,0,1,.3-1.16,2.015,2.015,0,0,1,.886-.823A16.309,16.309,0,0,1,6.873,8.4a19.042,19.042,0,0,1,3.9-.4,18.719,18.719,0,0,1,5.168.717,16.49,16.49,0,0,1,4.7,2.194,16.016,16.016,0,0,1,4.62-2.194A18.125,18.125,0,0,1,30.35,8a18.739,18.739,0,0,1,3.881.4A16.378,16.378,0,0,1,37.9,9.645a2.149,2.149,0,0,1,.907.823,2.213,2.213,0,0,1,.316,1.16V31.161a2,2,0,0,1-.949,1.793,1.616,1.616,0,0,1-1.877.021,20.088,20.088,0,0,0-2.911-.949,12.825,12.825,0,0,0-3.037-.359,14.879,14.879,0,0,0-5.1.886A18.559,18.559,0,0,0,20.647,35ZM11.956,21.12Z" transform="translate(-2 -8)" fill="#7c4dd6"/>
</svg>
